<?xml version="1.0" ?><svg width="24" height="24" viewBox="0 0 24 24" fill="none" xmlns="http://www.w3.org/2000/svg">
<g clip-path="url(#clip0)">
<path d="M23.557 12.0497C22.8945 10.7762 21.7928 9.81924 20.4448 9.34287C20.4645 9.25555 20.4956 9.13646 20.5448 8.97548C20.7465 8.31599 21.8641 6.45422 22.5212 5.43564L23.1936 4.39344L19.2675 3.1931L18.8749 3.53644C18.7192 3.67265 15.0395 6.94195 13.1873 13.0002C12.2804 15.9663 13.9558 19.1172 16.9219 20.024C19.888 20.9308 23.0389 19.2555 23.9457 16.2894C24.3793 14.871 24.2413 13.3654 23.557 12.0497ZM17.4701 18.2309C15.4927 17.6264 14.3758 15.5258 14.9803 13.5484C16.3415 9.0962 18.8209 6.25081 19.7475 5.30054L20.2912 5.46677C19.7241 6.40037 18.9705 7.71189 18.7518 8.42729C18.5782 8.99497 18.4809 9.46392 18.5703 9.90751C18.65 10.3026 18.9099 10.8237 19.6949 11.0684L19.7337 11.0813C21.6604 11.7115 22.7455 13.8018 22.1526 15.7412C21.5481 17.7186 19.4475 18.8355 17.4701 18.2309Z" fill="#479696"/>
<path d="M10.807 12.0497C10.1445 10.7762 9.04277 9.81924 7.69482 9.34287C7.71446 9.25555 7.74563 9.13646 7.79484 8.97548C7.99647 8.31599 9.11407 6.45422 9.7712 5.43564L10.4436 4.39344L6.51747 3.1931L6.12492 3.53645C5.96922 3.67265 2.28946 6.94195 0.437264 13.0002C-0.469563 15.9663 1.20579 19.1172 4.17189 20.024C7.13799 20.9308 10.2889 19.2555 11.1957 16.2894C11.6293 14.871 11.4913 13.3654 10.807 12.0497ZM4.72008 18.2309C2.74268 17.6264 1.62578 15.5258 2.23034 13.5484C3.59151 9.0962 6.07094 6.25081 6.99751 5.30054L7.54122 5.46677C6.97409 6.40037 6.22049 7.71189 6.00177 8.42729C5.82821 8.99497 5.73091 9.46392 5.82033 9.90751C5.89996 10.3026 6.15986 10.8237 6.94489 11.0684L6.98372 11.0813C8.91041 11.7115 9.99554 13.8018 9.40262 15.7412C8.79807 17.7186 6.69748 18.8355 4.72008 18.2309Z" fill="#479696"/>
</g>
<defs>
<clipPath id="clip0">
<rect width="24" height="24" fill="white"/>
</clipPath>
</defs>
</svg>
