<svg width="25" height="25" viewBox="0 0 25 25" fill="none" xmlns="http://www.w3.org/2000/svg">
<path d="M13.6823 9.78536C14.1138 9.78536 14.4635 9.43556 14.4635 9.00412C14.4635 8.57268 14.1138 8.22287 13.6823 8.22287H12.8224C12.7209 7.72488 12.524 7.2614 12.2522 6.85154L12.8617 6.24207C13.1668 5.93695 13.1667 5.44232 12.8617 5.13725C12.5566 4.83217 12.0619 4.83217 11.7568 5.13725L11.1474 5.74672C10.7375 5.47499 10.274 5.27802 9.77603 5.1765V4.31665C9.77603 3.8852 9.42627 3.5354 8.99478 3.5354C8.56329 3.5354 8.21353 3.8852 8.21353 4.31665V5.1765C7.71554 5.27797 7.25207 5.47499 6.84225 5.74672L6.23278 5.13725C5.92771 4.83212 5.43303 4.83212 5.12796 5.13725C4.82283 5.44232 4.82283 5.937 5.12796 6.24207L5.73738 6.85149C5.46565 7.26136 5.26863 7.72483 5.16717 8.22283H4.30731C3.87582 8.22283 3.52606 8.57263 3.52606 9.00407C3.52606 9.43551 3.87582 9.78532 4.30731 9.78532H5.16717C5.26868 10.2833 5.46565 10.7468 5.73738 11.1566L5.12796 11.7661C4.82283 12.0712 4.82283 12.5658 5.12796 12.8709C5.43298 13.176 5.92771 13.176 6.23278 12.8709L6.84225 12.2615C7.25211 12.5332 7.71559 12.7302 8.21358 12.8317V13.6915C8.21358 14.123 8.56334 14.4728 8.99483 14.4728C9.42632 14.4728 9.77607 14.123 9.77607 13.6915V12.8317C10.2741 12.7302 10.7375 12.5332 11.1474 12.2615L11.7568 12.8709C12.0619 13.176 12.5565 13.176 12.8617 12.8709C13.1667 12.5658 13.1668 12.0711 12.8617 11.7661L12.2522 11.1566C12.524 10.7467 12.7209 10.2833 12.8224 9.78532L13.6823 9.78536ZM11.2082 9.77365C10.9731 10.4478 10.4385 10.9824 9.76436 11.2175C9.70215 10.8482 9.38179 10.5667 8.99483 10.5667C8.60787 10.5667 8.28751 10.8482 8.2253 11.2175C7.55114 10.9824 7.01657 10.4478 6.78146 9.77365C7.15075 9.71144 7.43229 9.39108 7.43229 9.00417C7.43229 8.61726 7.1507 8.29685 6.78146 8.23469C7.01652 7.56052 7.55114 7.02596 8.2253 6.79085C8.28751 7.16009 8.60787 7.44168 8.99483 7.44168C9.38179 7.44168 9.70215 7.16009 9.76436 6.79085C10.4385 7.02591 10.9731 7.56052 11.2082 8.23469C10.8389 8.2969 10.5574 8.61726 10.5574 9.00417C10.5574 9.39108 10.8389 9.71144 11.2082 9.77365Z" fill="white"/>
<path d="M24.2856 20.8371L18.521 15.0725C18.2163 14.7676 17.7212 14.7674 17.4162 15.0725L16.7968 15.6919L15.8624 14.7575C17.176 13.195 17.9686 11.1806 17.9686 8.98432C17.9686 4.03035 13.9383 0 8.98432 0C4.03035 0 0 4.03035 0 8.98432C0 13.9383 4.03035 17.9686 8.98432 17.9686C11.1806 17.9686 13.195 17.176 14.7575 15.8624L15.6919 16.7968L15.0725 17.4162C14.7673 17.7213 14.7673 18.216 15.0725 18.521L20.837 24.2857C22.3695 25.8181 24.9999 24.7192 24.9999 22.5613C24.9998 21.91 24.7461 21.2976 24.2856 20.8371ZM1.56244 8.98432C1.56244 4.89191 4.89187 1.56249 8.98427 1.56249C13.0767 1.56249 16.4061 4.89191 16.4061 8.98432C16.4061 13.0767 13.0767 16.4062 8.98427 16.4062C4.89187 16.4062 1.56244 13.0767 1.56244 8.98432ZM22.5613 23.4374C22.3273 23.4374 22.1073 23.3463 21.9418 23.1808L16.7297 17.9686C16.7648 17.9335 16.5037 18.1946 17.9686 16.7297L23.1807 21.9419C23.7313 22.4924 23.3366 23.4374 22.5613 23.4374Z" fill="white"/>
</svg>
