<svg width="25" height="25" viewBox="0 0 25 25" fill="none" xmlns="http://www.w3.org/2000/svg">
<path fill-rule="evenodd" clip-rule="evenodd" d="M12.3708 1.0017C13.4483 1.0032 14.425 1.52257 14.8683 2.57301H16.242C16.4185 2.57301 16.6167 2.61224 16.7798 2.71011C16.9502 2.81235 17.0943 2.98961 17.0943 3.24202V3.88242H18.8373C20.1492 3.89641 21.2225 4.93137 21.2842 6.24197L21.2847 6.25372L21.2845 21.2597C21.2845 22.5814 20.0914 23.5 18.8346 23.5H5.94985C4.69303 23.5 3.5 22.5814 3.5 21.2597V6.2419C3.56167 4.93135 4.63525 3.89642 5.94718 3.88243L5.94985 3.8824L7.69022 3.88242V3.24202C7.69022 2.99923 7.81787 2.82059 7.98606 2.71357C8.14506 2.61239 8.33956 2.57301 8.51638 2.57301H9.86618C10.2976 1.59115 11.2875 0.962902 12.3708 1.0017ZM12.3666 1.97059L12.3737 1.97081C13.1749 1.99509 13.8563 2.56287 14.0247 3.34666L14.0263 3.35438C14.0525 3.49783 14.1703 3.60618 14.3147 3.62055H16.0468V6.21564H8.73772V3.62055H10.4108C10.5471 3.59839 10.6553 3.49241 10.6795 3.35553L10.6817 3.34314C10.8624 2.55658 11.5527 1.99203 12.3595 1.97078L12.3666 1.97059ZM19.7369 21.2675V6.26544C19.6901 5.79874 19.302 5.43964 18.8321 5.42996H17.0942V6.53255L17.092 6.54931C17.0343 6.97347 16.6624 7.28278 16.2357 7.26323H8.52225C8.0971 7.28168 7.7313 6.96357 7.69128 6.5391L7.69017 6.52739V5.43001H5.95227C5.48243 5.43964 5.09435 5.79875 5.04754 6.26549V21.2597C5.04754 21.4557 5.14303 21.6225 5.3086 21.7479C5.47754 21.8759 5.71148 21.9525 5.94985 21.9525H18.8346C19.073 21.9525 19.3069 21.8759 19.4759 21.7479C19.6392 21.6241 19.7344 21.4602 19.7369 21.2675Z" fill="white"/>
<path fill-rule="evenodd" clip-rule="evenodd" d="M10.551 12.7796C10.2602 12.4799 9.78296 12.4648 9.47379 12.7473L7.9738 14.1769L7.43988 13.6232C7.14957 13.318 6.66838 13.3012 6.35735 13.5853L6.35104 13.5911L6.34514 13.5973C6.05007 13.9064 6.05007 14.3928 6.34514 14.702L7.41733 15.8004C7.55888 15.9562 7.76149 16.0424 7.97207 16.0364C8.17371 16.0329 8.366 15.9509 8.508 15.8078L10.5463 13.874C10.8487 13.595 10.8687 13.1238 10.5909 12.8202L10.5916 12.821L10.4059 12.9883L10.5901 12.8193L10.5909 12.8202" fill="white"/>
<path fill-rule="evenodd" clip-rule="evenodd" d="M11.0947 14.6079C11.0947 14.1805 11.4411 13.8341 11.8685 13.8341H17.8918C18.3192 13.8341 18.6656 14.1805 18.6656 14.6079C18.6656 15.0352 18.3192 15.3817 17.8918 15.3817H11.8685C11.4411 15.3817 11.0947 15.0352 11.0947 14.6079Z" fill="white"/>
<path fill-rule="evenodd" clip-rule="evenodd" d="M10.551 8.58943C10.2602 8.28965 9.78295 8.27458 9.47379 8.55713L7.9738 9.9867L7.43988 9.43298C7.1496 9.12786 6.66839 9.11087 6.35733 9.39514L6.35103 9.4009L6.34514 9.40707C6.05007 9.71622 6.05007 10.2026 6.34514 10.5118L7.41733 11.6102C7.55887 11.766 7.76148 11.8522 7.97205 11.8462C8.1737 11.8427 8.366 11.7607 8.508 11.6176L10.5463 9.6838C10.8487 9.40475 10.8687 8.93361 10.5909 8.62994L10.5916 8.63082L10.4059 8.79811L10.5901 8.62907L10.5909 8.62994" fill="white"/>
<path fill-rule="evenodd" clip-rule="evenodd" d="M11.0947 10.4177C11.0947 9.99032 11.4411 9.6439 11.8685 9.6439H17.8918C18.3192 9.6439 18.6656 9.99032 18.6656 10.4177C18.6656 10.845 18.3192 11.1914 17.8918 11.1914H11.8685C11.4411 11.1914 11.0947 10.845 11.0947 10.4177Z" fill="white"/>
<path fill-rule="evenodd" clip-rule="evenodd" d="M10.5512 16.9699C10.2604 16.6699 9.78301 16.6549 9.47381 16.9374L7.9738 18.367L7.43988 17.8133C7.14957 17.5081 6.66838 17.4912 6.35735 17.7754L6.35104 17.7812L6.34514 17.7874C6.05007 18.0965 6.05007 18.5829 6.34514 18.8921L7.41733 19.9905C7.55888 20.1463 7.76149 20.2325 7.97207 20.2265C8.17371 20.223 8.366 20.141 8.508 19.9979L10.5463 18.0641C10.8488 17.785 10.8687 17.3137 10.5907 17.01C10.5778 16.9958 10.5645 16.9825 10.5512 16.9699Z" fill="white"/>
<path fill-rule="evenodd" clip-rule="evenodd" d="M11.0947 18.798C11.0947 18.3707 11.4411 18.0243 11.8685 18.0243H17.8918C18.3192 18.0243 18.6656 18.3707 18.6656 18.798C18.6656 19.2254 18.3192 19.5718 17.8918 19.5718H11.8685C11.4411 19.5718 11.0947 19.2254 11.0947 18.798Z" fill="white"/>
</svg>
