<svg width="25" height="25" viewBox="0 0 25 25" fill="none" xmlns="http://www.w3.org/2000/svg">
<path fill-rule="evenodd" clip-rule="evenodd" d="M12.4424 1.58446C12.6676 1.47185 12.9327 1.47185 13.1579 1.58446L23.1579 6.58446C23.429 6.71997 23.6002 6.99698 23.6002 7.3C23.6002 7.60302 23.429 7.88003 23.1579 8.01554L13.1579 13.0155C12.9327 13.1282 12.6676 13.1282 12.4424 13.0155L2.4424 8.01554C2.17138 7.88003 2.00018 7.60302 2.00018 7.3C2.00018 6.99698 2.17138 6.71997 2.4424 6.58446L12.4424 1.58446ZM4.58903 7.3L12.8002 11.4056L21.0113 7.3L12.8002 3.19443L4.58903 7.3Z" fill="white"/>
<path fill-rule="evenodd" clip-rule="evenodd" d="M2.08463 16.9422C2.28222 16.547 2.76276 16.3869 3.15795 16.5845L12.8002 21.4056L22.4424 16.5845C22.8376 16.3869 23.3181 16.547 23.5157 16.9422C23.7133 17.3374 23.5531 17.818 23.1579 18.0155L13.1579 23.0155C12.9327 23.1282 12.6676 23.1282 12.4424 23.0155L2.4424 18.0155C2.04722 17.818 1.88704 17.3374 2.08463 16.9422Z" fill="white"/>
<path fill-rule="evenodd" clip-rule="evenodd" d="M2.08463 11.9422C2.28222 11.547 2.76276 11.3869 3.15795 11.5845L12.8002 16.4056L22.4424 11.5845C22.8376 11.3869 23.3181 11.547 23.5157 11.9422C23.7133 12.3374 23.5531 12.8179 23.1579 13.0155L13.1579 18.0155C12.9327 18.1282 12.6676 18.1282 12.4424 18.0155L2.4424 13.0155C2.04722 12.8179 1.88704 12.3374 2.08463 11.9422Z" fill="white"/>
</svg>
