<svg width="24" height="24" viewBox="0 0 24 24" fill="none" xmlns="http://www.w3.org/2000/svg">
<path d="M21.2009 3.92176C20.0629 2.69864 18.4684 2.00271 16.7978 2.00013C15.1259 2.00206 13.5297 2.69763 12.39 3.92097L12.0016 4.33141L11.6132 3.92097C9.35176 1.48705 5.54536 1.34727 3.11148 3.60871C3.00363 3.70896 2.89947 3.81308 2.79922 3.92097C0.40026 6.50854 0.40026 10.5075 2.79922 13.0951L11.4308 22.1976C11.7294 22.5129 12.2271 22.5264 12.5423 22.2278C12.5527 22.218 12.5627 22.208 12.5725 22.1976L21.2009 13.0951C23.5997 10.5078 23.5997 6.50905 21.2009 3.92176ZM20.0632 12.0124H20.0624L12.0016 20.5142L3.9401 12.0124C2.10743 10.0352 2.10743 6.98002 3.9401 5.00288C5.60438 3.19905 8.41589 3.08595 10.2197 4.75023C10.3073 4.83104 10.3916 4.9153 10.4724 5.00288L11.4308 6.01403C11.7467 6.32785 12.2566 6.32785 12.5725 6.01403L13.5309 5.00366C15.1952 3.19984 18.0067 3.08674 19.8105 4.75102C19.8981 4.83182 19.9824 4.91608 20.0632 5.00366C21.9118 6.98394 21.9253 10.0447 20.0632 12.0124Z" fill="#479696"/>
</svg>
