<svg width="25" height="24" viewBox="0 0 25 24" fill="none" xmlns="http://www.w3.org/2000/svg">
<path d="M23.3661 11.8566C22.7036 10.583 21.6019 9.62614 20.2539 9.14977C20.2735 9.06244 20.3047 8.94335 20.3539 8.78238C20.5556 8.12289 21.6732 6.26112 22.3303 5.24253L23.0027 4.20033L19.0766 3L18.684 3.34334C18.5283 3.47955 14.8485 6.74884 12.9963 12.8071C12.0895 15.7732 13.7649 18.9241 16.731 19.8309C19.6971 20.7377 22.8479 19.0624 23.7548 16.0963C24.1884 14.6779 24.0503 13.1723 23.3661 11.8566ZM17.2792 18.0378C15.3018 17.4333 14.1849 15.3327 14.7894 13.3553C16.1506 8.90309 18.63 6.05771 19.5566 5.10743L20.1003 5.27366C19.5332 6.20727 18.7796 7.51879 18.5609 8.23418C18.3873 8.80187 18.29 9.27082 18.3794 9.71441C18.459 10.1095 18.7189 10.6306 19.504 10.8753L19.5428 10.8882C21.4695 11.5184 22.5546 13.6087 21.9617 15.5481C21.3572 17.5255 19.2566 18.6424 17.2792 18.0378Z" fill="#479696"/>
<path d="M10.6161 11.8566C9.95363 10.583 8.85186 9.62614 7.50391 9.14977C7.52354 9.06244 7.55471 8.94335 7.60392 8.78238C7.80555 8.12289 8.92315 6.26112 9.58028 5.24253L10.2527 4.20033L6.32656 3L5.93401 3.34334C5.7783 3.47955 2.09854 6.74884 0.246347 12.8071C-0.66048 15.7732 1.01487 18.9241 3.98097 19.8309C6.94707 20.7377 10.0979 19.0624 11.0048 16.0963C11.4384 14.6779 11.3003 13.1723 10.6161 11.8566ZM4.52917 18.0378C2.55177 17.4333 1.43487 15.3327 2.03942 13.3553C3.40059 8.90309 5.88003 6.05771 6.8066 5.10743L7.3503 5.27366C6.78317 6.20727 6.02957 7.51879 5.81085 8.23418C5.63729 8.80187 5.54 9.27082 5.62942 9.71441C5.70905 10.1095 5.96894 10.6306 6.75397 10.8753L6.79281 10.8882C8.7195 11.5184 9.80462 13.6087 9.2117 15.5481C8.60715 17.5255 6.50657 18.6424 4.52917 18.0378Z" fill="#479696"/>
</svg>
