<svg width="24" height="24" viewBox="0 0 24 24" fill="none" xmlns="http://www.w3.org/2000/svg">
<path fill-rule="evenodd" clip-rule="evenodd" d="M12 3C7.02944 3 3 7.02944 3 12C3 16.9706 7.02944 21 12 21C16.9706 21 21 16.9706 21 12C21 7.02944 16.9706 3 12 3ZM1 12C1 5.92487 5.92487 1 12 1C18.0751 1 23 5.92487 23 12C23 18.0751 18.0751 23 12 23C5.92487 23 1 18.0751 1 12Z" fill="#479696"/>
<path fill-rule="evenodd" clip-rule="evenodd" d="M8.79686 13.3959C8.46468 12.9577 7.84043 12.8697 7.4 13.2001C6.95817 13.5314 6.86863 14.1582 7.2 14.6001L8 14.0001C7.2 14.6001 7.2 14.6001 7.2 14.6001L7.20101 14.6014L7.20216 14.6029L7.2049 14.6066L7.21211 14.616L7.23341 14.6432C7.25065 14.665 7.274 14.6939 7.30336 14.7289C7.362 14.7987 7.445 14.8934 7.55145 15.0045C7.76352 15.2258 8.07343 15.5172 8.47433 15.8088C9.27227 16.3891 10.4745 17.0001 12 17.0001C13.5255 17.0001 14.7277 16.3891 15.5257 15.8088C15.9266 15.5172 16.2365 15.2258 16.4485 15.0045C16.555 14.8934 16.638 14.7987 16.6966 14.7289C16.726 14.6939 16.7493 14.665 16.7666 14.6432L16.7879 14.616L16.7951 14.6066L16.7978 14.6029L16.799 14.6014C16.799 14.6014 16.8 14.6001 16 14.0001L16.8 14.6001C17.1314 14.1582 17.0418 13.5314 16.6 13.2001C16.1596 12.8697 15.5353 12.9577 15.2031 13.3959L15.1985 13.4018C15.1925 13.4093 15.1812 13.4234 15.1647 13.4431C15.1315 13.4826 15.0778 13.5442 15.0046 13.6207C14.8573 13.7744 14.6359 13.9829 14.3493 14.1913C13.7723 14.611 12.9745 15.0001 12 15.0001C11.0255 15.0001 10.2277 14.611 9.65067 14.1913C9.36406 13.9829 9.14272 13.7744 8.99542 13.6207C8.92219 13.5442 8.86846 13.4826 8.83531 13.4431C8.81876 13.4234 8.80745 13.4093 8.8015 13.4018L8.79686 13.3959Z" fill="#479696"/>
<path fill-rule="evenodd" clip-rule="evenodd" d="M8 9C8 8.44772 8.44772 8 9 8H9.01C9.56229 8 10.01 8.44772 10.01 9C10.01 9.55228 9.56229 10 9.01 10H9C8.44772 10 8 9.55228 8 9Z" fill="#479696"/>
<path fill-rule="evenodd" clip-rule="evenodd" d="M14 9C14 8.44772 14.4477 8 15 8H15.01C15.5623 8 16.01 8.44772 16.01 9C16.01 9.55228 15.5623 10 15.01 10H15C14.4477 10 14 9.55228 14 9Z" fill="#47969"/>
</svg>
