<svg width="24" height="24" viewBox="0 0 24 24" fill="none" xmlns="http://www.w3.org/2000/svg">
<path fill-rule="evenodd" clip-rule="evenodd" d="M6 9C4.93913 9 3.92172 9.42143 3.17157 10.1716C2.42143 10.9217 2 11.9391 2 13C2 14.0609 2.42143 15.0783 3.17157 15.8284C3.54301 16.1999 3.98396 16.4945 4.46927 16.6955C4.95457 16.8965 5.47471 17 6 17H9C9.55229 17 10 17.4477 10 18C10 18.5523 9.55229 19 9 19H6C5.21207 19 4.43185 18.8448 3.7039 18.5433C2.97595 18.2417 2.31451 17.7998 1.75736 17.2426C0.632141 16.1174 0 14.5913 0 13C0 11.4087 0.632141 9.88258 1.75736 8.75736C2.88258 7.63214 4.4087 7 6 7H9C9.55229 7 10 7.44772 10 8C10 8.55228 9.55229 9 9 9H6ZM14 8C14 7.44772 14.4477 7 15 7H18C18.7879 7 19.5681 7.15519 20.2961 7.45672C21.0241 7.75825 21.6855 8.20021 22.2426 8.75736C22.7998 9.31451 23.2417 9.97595 23.5433 10.7039C23.8448 11.4319 24 12.2121 24 13C24 13.7879 23.8448 14.5681 23.5433 15.2961C23.2417 16.0241 22.7998 16.6855 22.2426 17.2426C21.6855 17.7998 21.0241 18.2417 20.2961 18.5433C19.5681 18.8448 18.7879 19 18 19H15C14.4477 19 14 18.5523 14 18C14 17.4477 14.4477 17 15 17H18C18.5253 17 19.0454 16.8965 19.5307 16.6955C20.016 16.4945 20.457 16.1999 20.8284 15.8284C21.1999 15.457 21.4945 15.016 21.6955 14.5307C21.8965 14.0454 22 13.5253 22 13C22 12.4747 21.8965 11.9546 21.6955 11.4693C21.4945 10.984 21.1999 10.543 20.8284 10.1716C20.457 9.80014 20.016 9.5055 19.5307 9.30448C19.0454 9.10346 18.5253 9 18 9H15C14.4477 9 14 8.55228 14 8ZM7 13C7 12.4477 7.44772 12 8 12H16C16.5523 12 17 12.4477 17 13C17 13.5523 16.5523 14 16 14H8C7.44772 14 7 13.5523 7 13Z" fill="#9D95A6"/>
</svg>
