<svg width="25" height="25" viewBox="0 0 25 25" fill="none" xmlns="http://www.w3.org/2000/svg">
<path fill-rule="evenodd" clip-rule="evenodd" d="M12.4424 2.08446C12.6676 1.97185 12.9327 1.97185 13.1579 2.08446L23.1579 7.08446C23.429 7.21997 23.6002 7.49698 23.6002 7.8C23.6002 8.10302 23.429 8.38003 23.1579 8.51554L13.1579 13.5155C12.9327 13.6282 12.6676 13.6282 12.4424 13.5155L2.4424 8.51554C2.17138 8.38003 2.00018 8.10302 2.00018 7.8C2.00018 7.49698 2.17138 7.21997 2.4424 7.08446L12.4424 2.08446ZM4.58903 7.8L12.8002 11.9056L21.0113 7.8L12.8002 3.69443L4.58903 7.8Z" fill="white"/>
<path fill-rule="evenodd" clip-rule="evenodd" d="M2.08463 17.4422C2.28222 17.047 2.76276 16.8869 3.15795 17.0845L12.8002 21.9056L22.4424 17.0845C22.8376 16.8869 23.3181 17.047 23.5157 17.4422C23.7133 17.8374 23.5531 18.318 23.1579 18.5155L13.1579 23.5155C12.9327 23.6282 12.6676 23.6282 12.4424 23.5155L2.4424 18.5155C2.04722 18.318 1.88704 17.8374 2.08463 17.4422Z" fill="white"/>
<path fill-rule="evenodd" clip-rule="evenodd" d="M2.08463 12.4422C2.28222 12.047 2.76276 11.8869 3.15795 12.0845L12.8002 16.9056L22.4424 12.0845C22.8376 11.8869 23.3181 12.047 23.5157 12.4422C23.7133 12.8374 23.5531 13.3179 23.1579 13.5155L13.1579 18.5155C12.9327 18.6282 12.6676 18.6282 12.4424 18.5155L2.4424 13.5155C2.04722 13.3179 1.88704 12.8374 2.08463 12.4422Z" fill="white"/>
</svg>
