<svg width="25" height="25" viewBox="0 0 25 25" fill="none" xmlns="http://www.w3.org/2000/svg">
<path fill-rule="evenodd" clip-rule="evenodd" d="M12.3708 0.5017C13.4483 0.503197 14.425 1.02257 14.8683 2.07301H16.242C16.4185 2.07301 16.6167 2.11224 16.7798 2.21011C16.9502 2.31235 17.0943 2.48961 17.0943 2.74202V3.38242H18.8373C20.1492 3.39641 21.2225 4.43137 21.2842 5.74197L21.2847 5.75372L21.2845 20.7597C21.2845 22.0814 20.0914 23 18.8346 23H5.94985C4.69303 23 3.5 22.0814 3.5 20.7597V5.7419C3.56167 4.43135 4.63525 3.39642 5.94718 3.38243L5.94985 3.3824L7.69022 3.38242V2.74202C7.69022 2.49923 7.81787 2.32059 7.98606 2.21357C8.14506 2.11239 8.33956 2.07301 8.51638 2.07301H9.86618C10.2976 1.09115 11.2875 0.462902 12.3708 0.5017ZM12.3666 1.47059L12.3737 1.47081C13.1749 1.49509 13.8563 2.06287 14.0247 2.84666L14.0263 2.85438C14.0525 2.99783 14.1703 3.10618 14.3147 3.12055H16.0468V5.71564H8.73772V3.12055H10.4108C10.5471 3.09839 10.6553 2.99241 10.6795 2.85553L10.6817 2.84314C10.8624 2.05658 11.5527 1.49203 12.3595 1.47078L12.3666 1.47059ZM19.7369 20.7675V5.76544C19.6901 5.29874 19.302 4.93964 18.8321 4.92996H17.0942V6.03255L17.092 6.04931C17.0343 6.47347 16.6624 6.78278 16.2357 6.76323H8.52225C8.0971 6.78168 7.7313 6.46357 7.69128 6.0391L7.69017 6.02739V4.93001H5.95227C5.48243 4.93964 5.09435 5.29875 5.04754 5.76549V20.7597C5.04754 20.9557 5.14303 21.1225 5.3086 21.2479C5.47754 21.3759 5.71148 21.4525 5.94985 21.4525H18.8346C19.073 21.4525 19.3069 21.3759 19.4759 21.2479C19.6392 21.1241 19.7344 20.9602 19.7369 20.7675Z" fill="white"/>
<path fill-rule="evenodd" clip-rule="evenodd" d="M10.551 12.2796C10.2602 11.9799 9.78296 11.9648 9.47379 12.2473L7.9738 13.6769L7.43988 13.1232C7.14957 12.818 6.66838 12.8012 6.35735 13.0853L6.35104 13.0911L6.34514 13.0973C6.05007 13.4064 6.05007 13.8928 6.34514 14.202L7.41733 15.3004C7.55888 15.4562 7.76149 15.5424 7.97207 15.5364C8.17371 15.5329 8.366 15.4509 8.508 15.3078L10.5463 13.374C10.8487 13.095 10.8687 12.6238 10.5909 12.3202L10.5916 12.321L10.4059 12.4883L10.5901 12.3193L10.5909 12.3202" fill="white"/>
<path fill-rule="evenodd" clip-rule="evenodd" d="M11.0947 14.1079C11.0947 13.6805 11.4411 13.3341 11.8685 13.3341H17.8918C18.3192 13.3341 18.6656 13.6805 18.6656 14.1079C18.6656 14.5352 18.3192 14.8817 17.8918 14.8817H11.8685C11.4411 14.8817 11.0947 14.5352 11.0947 14.1079Z" fill="white"/>
<path fill-rule="evenodd" clip-rule="evenodd" d="M10.551 8.08943C10.2602 7.78965 9.78295 7.77458 9.47379 8.05713L7.9738 9.4867L7.43988 8.93298C7.1496 8.62786 6.66839 8.61087 6.35733 8.89514L6.35103 8.9009L6.34514 8.90707C6.05007 9.21622 6.05007 9.70263 6.34514 10.0118L7.41733 11.1102C7.55887 11.266 7.76148 11.3522 7.97205 11.3462C8.1737 11.3427 8.366 11.2607 8.508 11.1176L10.5463 9.1838C10.8487 8.90475 10.8687 8.43361 10.5909 8.12994L10.5916 8.13082L10.4059 8.29811L10.5901 8.12907L10.5909 8.12994" fill="white"/>
<path fill-rule="evenodd" clip-rule="evenodd" d="M11.0947 9.91767C11.0947 9.49032 11.4411 9.1439 11.8685 9.1439H17.8918C18.3192 9.1439 18.6656 9.49032 18.6656 9.91767C18.6656 10.345 18.3192 10.6914 17.8918 10.6914H11.8685C11.4411 10.6914 11.0947 10.345 11.0947 9.91767Z" fill="white"/>
<path fill-rule="evenodd" clip-rule="evenodd" d="M10.5512 16.4699C10.2604 16.1699 9.78301 16.1549 9.47381 16.4374L7.9738 17.867L7.43988 17.3133C7.14957 17.0081 6.66838 16.9912 6.35735 17.2754L6.35104 17.2812L6.34514 17.2874C6.05007 17.5965 6.05007 18.0829 6.34514 18.3921L7.41733 19.4905C7.55888 19.6463 7.76149 19.7325 7.97207 19.7265C8.17371 19.723 8.366 19.641 8.508 19.4979L10.5463 17.5641C10.8488 17.285 10.8687 16.8137 10.5907 16.51C10.5778 16.4958 10.5645 16.4825 10.5512 16.4699Z" fill="white"/>
<path fill-rule="evenodd" clip-rule="evenodd" d="M11.0947 18.298C11.0947 17.8707 11.4411 17.5243 11.8685 17.5243H17.8918C18.3192 17.5243 18.6656 17.8707 18.6656 18.298C18.6656 18.7254 18.3192 19.0718 17.8918 19.0718H11.8685C11.4411 19.0718 11.0947 18.7254 11.0947 18.298Z" fill="white"/>
</svg>
