<svg width="25" height="25" viewBox="0 0 25 25" fill="none" xmlns="http://www.w3.org/2000/svg">
<path fill-rule="evenodd" clip-rule="evenodd" d="M5 6C4.44772 6 4 6.44772 4 7V21C4 21.5523 4.44772 22 5 22H19C19.5523 22 20 21.5523 20 21V7C20 6.44772 19.5523 6 19 6H5ZM2 7C2 5.34315 3.34315 4 5 4H19C20.6569 4 22 5.34315 22 7V21C22 22.6569 20.6569 24 19 24H5C3.34315 24 2 22.6569 2 21V7Z" fill="#9D95A6"/>
<path fill-rule="evenodd" clip-rule="evenodd" d="M16 2C16.5523 2 17 2.44772 17 3V7C17 7.55228 16.5523 8 16 8C15.4477 8 15 7.55228 15 7V3C15 2.44772 15.4477 2 16 2Z" fill="#9D95A6"/>
<path fill-rule="evenodd" clip-rule="evenodd" d="M8 2C8.55228 2 9 2.44772 9 3V7C9 7.55228 8.55228 8 8 8C7.44772 8 7 7.55228 7 7V3C7 2.44772 7.44772 2 8 2Z" fill="#9D95A6"/>
<path fill-rule="evenodd" clip-rule="evenodd" d="M2 11C2 10.4477 2.44772 10 3 10H21C21.5523 10 22 10.4477 22 11C22 11.5523 21.5523 12 21 12H3C2.44772 12 2 11.5523 2 11Z" fill="#9D95A6"/>
</svg>
