<svg width="24" height="24" viewBox="0 0 24 24" fill="none" xmlns="http://www.w3.org/2000/svg">
<path fill-rule="evenodd" clip-rule="evenodd" d="M12 3C7.02944 3 3 7.02944 3 12C3 16.9706 7.02944 21 12 21C16.9706 21 21 16.9706 21 12C21 7.02944 16.9706 3 12 3ZM1 12C1 5.92487 5.92487 1 12 1C18.0751 1 23 5.92487 23 12C23 18.0751 18.0751 23 12 23C5.92487 23 1 18.0751 1 12Z" fill="#479696"/>
<path fill-rule="evenodd" clip-rule="evenodd" d="M8 9C8 8.44772 8.44772 8 9 8H9.01C9.56229 8 10.01 8.44772 10.01 9C10.01 9.55228 9.56229 10 9.01 10H9C8.44772 10 8 9.55228 8 9Z" fill="#479696"/>
<path fill-rule="evenodd" clip-rule="evenodd" d="M14 9C14 8.44772 14.4477 8 15 8H15.01C15.5623 8 16.01 8.44772 16.01 9C16.01 9.55228 15.5623 10 15.01 10H15C14.4477 10 14 9.55228 14 9Z" fill="#479696"/>
<path fill-rule="evenodd" clip-rule="evenodd" d="M15.2032 16.6041C15.5354 17.0423 16.1596 17.1303 16.6001 16.7999C17.0419 16.4686 17.1314 15.8418 16.8001 15.3999L16.0001 15.9999C16.8001 15.3999 16.8001 15.3999 16.8001 15.3999L16.7991 15.3986L16.7979 15.3971L16.7952 15.3934L16.788 15.384L16.7667 15.3568C16.7494 15.335 16.7261 15.3061 16.6967 15.2711C16.6381 15.2013 16.5551 15.1066 16.4486 14.9955C16.2365 14.7742 15.9266 14.4828 15.5257 14.1912C14.7278 13.6109 13.5256 12.9999 12.0001 12.9999C10.4745 12.9999 9.27233 13.6109 8.47439 14.1912C8.0735 14.4828 7.76359 14.7742 7.55151 14.9955C7.44506 15.1066 7.36207 15.2013 7.30342 15.2711C7.27407 15.3061 7.25071 15.335 7.23347 15.3568L7.21217 15.384L7.20497 15.3934L7.20223 15.3971L7.20107 15.3986C7.20107 15.3986 7.20006 15.3999 8.00006 15.9999L7.20006 15.3999C6.86869 15.8418 6.95823 16.4686 7.40006 16.7999C7.8405 17.1303 8.46474 17.0423 8.79692 16.6041L8.80157 16.5982C8.80752 16.5907 8.81883 16.5766 8.83537 16.5569C8.86853 16.5174 8.92225 16.4558 8.99549 16.3793C9.14279 16.2256 9.36413 16.0171 9.65073 15.8087C10.2278 15.389 11.0256 14.9999 12.0001 14.9999C12.9745 14.9999 13.7723 15.389 14.3494 15.8087C14.636 16.0171 14.8573 16.2256 15.0046 16.3793C15.0779 16.4558 15.1316 16.5174 15.1648 16.5569C15.1813 16.5766 15.1926 16.5907 15.1986 16.5982L15.2032 16.6041Z" fill="#479696"/>
</svg>
