<svg width="25" height="25" viewBox="0 0 25 25" fill="none" xmlns="http://www.w3.org/2000/svg">
<path d="M10.901 0.196209C7.59173 0.887695 4.90851 3.54523 4.20247 6.87502C3.6063 9.68677 4.34095 12.5096 6.21804 14.6198C7.13561 15.6513 7.6618 17.0128 7.6618 18.3591V19.824C7.6618 20.7987 8.29987 21.6267 9.18008 21.9135C9.46955 23.6238 10.954 25 12.789 25C14.6235 25 16.1083 23.6242 16.3979 21.9135C17.2781 21.6267 17.9162 20.7987 17.9162 19.824V18.3591C17.9162 17.0101 18.4441 15.665 19.4027 14.5714C20.8057 12.9707 21.5784 10.9169 21.5784 8.78839C21.5784 3.24298 16.5026 -0.974058 10.901 0.196209ZM12.789 23.5351C11.8474 23.5351 11.0219 22.8873 10.7171 22.0165H14.8609C14.5561 22.8873 13.7305 23.5351 12.789 23.5351ZM16.4513 19.824C16.4513 20.2279 16.1227 20.5565 15.7188 20.5565H9.85917C9.45529 20.5565 9.12671 20.2279 9.12671 19.824V19.0916H16.4513V19.824ZM18.301 13.6058C17.2795 14.7713 16.651 16.1766 16.4915 17.6267H9.08657C8.92729 16.1758 8.30041 14.7567 7.31267 13.6462C5.74824 11.8876 5.13693 9.53027 5.63554 7.17889C6.21755 4.43395 8.45398 2.20411 11.2006 1.63021C15.8895 0.650331 20.1135 4.17158 20.1135 8.78839C20.1135 10.5615 19.4698 12.2724 18.301 13.6058Z" fill="white"/>
</svg>
