<svg xmlns:xlink="http://www.w3.org/1999/xlink" width="256" xmlns="http://www.w3.org/2000/svg" height="256" id="screenshot-450040b7-2a31-80d2-8003-9a82fc9faa15" viewBox="0 0 256 256" style="-webkit-print-color-adjust: exact;" fill="none" version="1.1"><g id="shape-450040b7-2a31-80d2-8003-9a82fc9faa15" clip-path="url(#rumext-id-1-clip0_878_9237)" rx="0" ry="0" style="fill: rgb(0, 0, 0);"><defs><clipPath id="rumext-id-1-clip0_878_9237" class="svg-def" transform="matrix(1.000000, 0.000000, 0.000000, 1.000000, -896.000000, -282.000000)"><rect width="256" height="256" fill="white" transform="translate(896 282)"/></clipPath></defs><g id="shape-450040b7-2a31-80d2-8003-9a82fca1b641"><g class="fills" id="fills-450040b7-2a31-80d2-8003-9a82fca1b641"><path fill-rule="evenodd" clip-rule="evenodd" rx="0" ry="0" d="M227.180,28.818C228.940,30.575,228.940,33.425,227.180,35.182L134.360,128.000L239.180,232.818C240.940,234.575,240.940,237.425,239.180,239.182C237.420,240.939,234.580,240.939,232.820,239.182L136.330,142.698L156.360,222.403C156.970,224.814,155.510,227.259,153.100,227.864C150.690,228.470,148.240,227.007,147.640,224.597L125.040,134.702L26.133,187.962C23.945,189.140,21.216,188.322,20.038,186.133C18.860,183.945,19.678,181.216,21.867,180.038L120.540,126.905L68.818,75.182C67.061,73.425,67.061,70.575,68.818,68.818C70.575,67.061,73.425,67.061,75.182,68.818L128.000,121.636L220.820,28.818C222.580,27.061,225.420,27.061,227.180,28.818ZZ" style="fill: rgb(201, 63, 141);"/></g></g><g id="shape-450040b7-2a31-80d2-8003-9a82fca2382c"><g class="fills" id="fills-450040b7-2a31-80d2-8003-9a82fca2382c"><path rx="0" ry="0" d="M168.000,128.000C168.000,150.091,150.090,168.000,128.000,168.000C105.910,168.000,88.000,150.091,88.000,128.000C88.000,105.909,105.910,88.000,128.000,88.000C150.090,88.000,168.000,105.909,168.000,128.000ZZ" style="fill: rgb(54, 81, 115); fill-opacity: 1;"/></g></g><g id="shape-450040b7-2a31-80d2-8003-9a82fca28986"><g class="fills" id="fills-450040b7-2a31-80d2-8003-9a82fca28986"><path rx="0" ry="0" d="M88.000,72.000C88.000,80.837,80.837,88.000,72.000,88.000C63.163,88.000,56.000,80.837,56.000,72.000C56.000,63.163,63.163,56.000,72.000,56.000C80.837,56.000,88.000,63.163,88.000,72.000ZZ" style="fill: rgb(201, 63, 141);"/></g></g><g id="shape-450040b7-2a31-80d2-8003-9a82fca33dd7"><g class="fills" id="fills-450040b7-2a31-80d2-8003-9a82fca33dd7"><path rx="0" ry="0" d="M168.000,224.000C168.000,232.837,160.840,240.000,152.000,240.000C143.160,240.000,136.000,232.837,136.000,224.000C136.000,215.163,143.160,208.000,152.000,208.000C160.840,208.000,168.000,215.163,168.000,224.000ZZ" style="fill: rgb(201, 63, 141);"/></g></g><g id="shape-450040b7-2a31-80d2-8003-9a82fca366d1"><g class="fills" id="fills-450040b7-2a31-80d2-8003-9a82fca366d1"><path rx="0" ry="0" d="M48.000,184.000C48.000,197.255,37.255,208.000,24.000,208.000C10.745,208.000,0.000,197.255,0.000,184.000C0.000,170.745,10.745,160.000,24.000,160.000C37.255,160.000,48.000,170.745,48.000,184.000ZZ" style="fill: rgb(201, 63, 141);"/></g></g><g id="shape-450040b7-2a31-80d2-8003-9a82fca3a562"><g class="fills" id="fills-450040b7-2a31-80d2-8003-9a82fca3a562"><path rx="0" ry="0" d="M256.000,236.000C256.000,247.046,247.050,256.000,236.000,256.000C224.950,256.000,216.000,247.046,216.000,236.000C216.000,224.954,224.950,216.000,236.000,216.000C247.050,216.000,256.000,224.954,256.000,236.000ZZ" style="fill: rgb(201, 63, 141);"/></g></g><g id="shape-450040b7-2a31-80d2-8003-9a82fca3cfb7"><g class="fills" id="fills-450040b7-2a31-80d2-8003-9a82fca3cfb7"><path rx="0" ry="0" d="M256.000,32.000C256.000,49.673,241.670,64.000,224.000,64.000C206.330,64.000,192.000,49.673,192.000,32.000C192.000,14.327,206.330,0.000,224.000,0.000C241.670,0.000,256.000,14.327,256.000,32.000ZZ" style="fill: rgb(201, 63, 141);"/></g></g><g id="shape-450040b7-2a31-80d2-8003-9a82fca467fe"><g class="fills" id="fills-450040b7-2a31-80d2-8003-9a82fca467fe"><path fill-rule="evenodd" clip-rule="evenodd" rx="0" ry="0" d="M227.180,28.818C228.940,30.575,228.940,33.425,227.180,35.182L154.180,108.182C152.420,109.939,149.580,109.939,147.820,108.182C146.060,106.425,146.060,103.575,147.820,101.818L220.820,28.818C222.580,27.061,225.420,27.061,227.180,28.818ZZ" style="fill: rgb(201, 63, 141);"/></g></g></g></svg>